<svg class="svg-icon" style="width: 1em; height: 1em;vertical-align: middle;fill: currentColor;overflow: hidden;" viewBox="0 0 1024 1024" version="1.1" xmlns="http://www.w3.org/2000/svg"><path d="M767 328.5v481c0 11-9 20-20 20H277c-11 0-20-9-20-20v-481h-50v481c0 38.7 31.3 70 70 70h470c38.7 0 70-31.3 70-70v-481h-50zM862 260.5H640.9l-60-66H443.1l-60 66H162c-13.8 0-25-11.2-25-25s11.2-25 25-25h198.9l48.7-53.5c7.2-7.9 17.5-12.5 28.2-12.5h148.4c10.7 0 21 4.6 28.2 12.5l48.7 53.5H862c13.8 0 25 11.2 25 25s-11.2 25-25 25z" fill="#666666" /><path d="M369 775.5c-13.8 0-25-11.2-25-25v-403c0-13.8 11.2-25 25-25s25 11.2 25 25v403c0 13.8-11.2 25-25 25zM512 775.5c-13.8 0-25-11.2-25-25v-403c0-13.8 11.2-25 25-25s25 11.2 25 25v403c0 13.8-11.2 25-25 25zM656 775.5c-13.8 0-25-11.2-25-25v-403c0-13.8 11.2-25 25-25s25 11.2 25 25v403c0 13.8-11.2 25-25 25z" fill="#666666" /><path d="M232 328.5m-25 0a25 25 0 1 0 50 0 25 25 0 1 0-50 0Z" fill="#666666" /><path d="M792 328.5m-25 0a25 25 0 1 0 50 0 25 25 0 1 0-50 0Z" fill="#666666" /></svg>