<svg class="svg-icon" style="width: 1em;height: 1em;vertical-align: middle;fill: currentColor;overflow: hidden;" viewBox="0 0 1024 1024" version="1.1" xmlns="http://www.w3.org/2000/svg"><path d="M512 465.454545a186.181818 186.181818 0 1 0 0-372.363636 186.181818 186.181818 0 0 0 0 372.363636z m0 93.09091c-154.228364 0-279.272727-125.044364-279.272727-279.272728S357.771636 0 512 0s279.272727 125.044364 279.272727 279.272727-125.044364 279.272727-279.272727 279.272728z m422.981818 149.643636c14.08 8.378182 24.296727 15.266909 30.603637 20.037818 33.885091 22.923636 58.414545 68.654545 58.414545 109.544727v93.184A92.997818 92.997818 0 0 1 930.978909 1024H93.021091A92.928 92.928 0 0 1 0 930.955636v-93.184c0-41.122909 24.482909-87.365818 59.066182-109.963636 6.330182-4.770909 16.407273-11.566545 30.184727-19.735273A630.853818 630.853818 0 0 1 176.64 665.6C271.476364 627.712 383.464727 605.090909 512 605.090909s240.593455 22.644364 335.499636 60.578909c33.629091 13.428364 62.813091 27.927273 87.482182 42.542546zM930.909091 907.403636v-69.632c0-10.007273-9.355636-27.182545-17.617455-32.512l-3.421091-2.420363a241.803636 241.803636 0 0 0-22.341818-14.545455 539.601455 539.601455 0 0 0-74.565818-36.189091C728.785455 718.475636 628.410182 698.181818 512 698.181818c-116.386909 0-216.738909 20.247273-300.823273 53.853091a538.298182 538.298182 0 0 0-74.472727 36.119273c-11.799273 7.005091-19.269818 12.125091-22.295273 14.498909l-4.258909 2.978909c-7.796364 4.794182-17.058909 21.946182-17.058909 32.139636v69.632A23.272727 23.272727 0 0 0 116.363636 930.909091h791.272728c12.683636 0 23.272727-10.519273 23.272727-23.505455z" fill="#9099B0" /></svg>