<svg version="1.1" id="Layer_1" xmlns="http://www.w3.org/2000/svg" xmlns:xlink="http://www.w3.org/1999/xlink" x="0px" y="0px"
	 width="100%" viewBox="0 0 1366 768" enable-background="new 0 0 1366 768" xml:space="preserve">
<path fill="#FFFFFF" opacity="1.000000" stroke="none" 
	d="
M709.000000,769.000000 
	C682.312439,769.000000 655.624878,769.000000 628.511108,768.532837 
	C628.084961,730.828674 628.084961,693.591736 628.084961,655.775391 
	C651.462891,655.775391 674.026245,655.775391 696.685608,655.775391 
	C696.685608,633.979492 696.685608,612.770386 696.685608,591.506409 
	C623.976746,591.506409 551.647034,591.506409 479.424072,591.506409 
	C479.424072,613.155701 479.424072,634.368774 479.424072,656.125366 
	C502.090393,656.125366 524.320984,656.125366 547.000000,656.125366 
	C547.000000,694.116333 547.000000,731.558167 547.000000,769.000000 
	C365.069763,769.000000 183.139542,769.000000 1.000000,769.000000 
	C1.000000,570.979126 1.000000,372.958221 1.468087,174.442535 
	C21.839548,173.947739 41.742920,173.947739 62.186310,173.947739 
	C62.186310,140.883041 62.186310,108.665489 62.186310,75.768318 
	C86.752899,75.768318 110.776619,75.768318 134.689911,75.768318 
	C134.689911,55.181709 134.689911,35.284779 134.689911,14.859109 
	C110.404640,14.859109 86.505783,14.859109 62.000000,14.859109 
	C62.000000,9.894491 62.000000,5.447246 62.000000,1.000000 
	C104.687561,1.000000 147.375122,1.000000 190.572540,1.467244 
	C191.082382,59.162369 191.082382,116.390251 191.082382,173.614410 
	C218.780045,173.614410 245.538467,173.614410 272.901550,173.614410 
	C272.901550,171.356995 272.900513,169.407715 272.901672,167.458435 
	C272.934326,111.972290 272.967163,56.486145 273.000000,1.000000 
	C288.687561,1.000000 304.375122,1.000000 320.507599,1.347025 
	C316.911255,8.150566 312.210388,14.292459 308.952606,21.122650 
	C299.216553,41.534958 296.102264,63.126198 299.037445,85.583336 
	C301.085541,101.253342 305.431366,116.156624 314.089600,129.508759 
	C336.475616,164.030701 370.497833,175.678543 409.334259,176.755859 
	C418.623749,177.013565 428.147491,174.960129 437.302155,172.840775 
	C469.704987,165.339432 493.877472,147.200943 507.723999,116.421677 
	C514.976318,100.300568 516.224426,83.208984 516.095947,65.772530 
	C515.933899,43.770008 509.810242,23.883484 497.023987,6.006374 
	C495.893188,4.425394 495.002289,2.672858 494.000000,1.000002 
	C506.354218,1.000000 518.708435,1.000000 531.514648,1.411770 
	C535.490479,17.184967 538.963928,32.558170 542.548889,47.905315 
	C549.419800,77.319344 556.322327,106.726089 563.277283,136.120346 
	C566.246704,148.670135 569.380188,161.181091 572.397949,173.541138 
	C573.402954,173.728043 573.885681,173.896103 574.368530,173.896439 
	C603.023865,173.916672 631.679565,173.856842 660.334045,174.014236 
	C663.934326,174.034027 664.365173,171.921097 664.919067,169.457321 
	C671.652344,139.508011 678.356750,109.552200 685.116638,79.608902 
	C686.621155,72.944557 688.312256,66.322327 689.917480,59.680714 
	C698.547119,96.171883 706.330750,132.500397 713.974121,168.858398 
	C714.735596,172.480515 715.950684,174.069290 720.066162,174.038406 
	C747.387268,173.833313 774.711304,173.839539 802.032532,174.037399 
	C805.901367,174.065414 807.165527,172.616333 807.966736,169.212234 
	C818.727417,123.493042 829.632385,77.807808 840.388672,32.087589 
	C842.814270,21.777252 844.807678,11.365220 847.000000,1.000000 
	C1020.252502,1.000000 1193.505005,1.000000 1367.000000,1.000000 
	C1367.000000,140.020798 1367.000000,279.041748 1366.734375,418.799011 
	C1365.855347,422.391754 1365.241821,425.248199 1364.628418,428.104645 
	C1362.801392,421.694214 1361.884155,415.211884 1361.002319,408.724701 
	C1358.859131,392.959686 1356.746216,377.190582 1354.595581,361.426605 
	C1352.400391,345.336609 1350.045776,329.266998 1348.021484,313.155731 
	C1347.123779,306.010284 1346.522705,305.130035 1339.167603,305.123779 
	C1320.008789,305.107513 1300.849487,305.045898 1281.691528,305.169464 
	C1276.929321,305.200165 1272.171143,305.864380 1266.733643,306.290466 
	C1267.622192,310.835388 1268.295288,315.033936 1269.272217,319.160583 
	C1284.135864,381.956543 1299.071167,444.735596 1313.847900,507.551971 
	C1314.664185,511.021576 1316.052368,512.104553 1319.520142,512.069702 
	C1335.345459,511.910645 1351.173096,511.999969 1367.000000,512.000000 
	C1367.000000,555.687561 1367.000000,599.375122 1366.531372,643.531372 
	C1350.243286,644.000000 1334.421143,644.156677 1318.606079,643.891724 
	C1314.563232,643.824036 1312.347656,645.253357 1310.211182,648.496460 
	C1295.388672,670.996460 1280.386841,693.378357 1265.425171,715.786560 
	C1264.576416,717.057678 1263.573486,718.225708 1262.642212,719.441711 
	C1262.299927,719.320129 1261.957520,719.198547 1261.615234,719.076965 
	C1261.615234,672.566345 1261.615234,626.055664 1261.615234,579.082092 
	C1234.201904,579.648438 1207.341553,578.218506 1180.116943,580.061035 
	C1180.116943,588.879089 1180.121704,597.013489 1180.116089,605.147949 
	C1180.078613,659.765320 1180.038940,714.382629 1180.000000,769.000000 
	C1168.645752,769.000000 1157.291504,769.000000 1145.500000,768.613953 
	C1140.298218,751.296021 1128.433716,740.434875 1112.880615,734.464539 
	C1099.483643,729.321777 1085.084473,726.820251 1071.188110,722.937439 
	C1062.277954,720.447937 1053.286377,718.037109 1044.751465,714.559753 
	C1042.439453,713.617737 1040.710938,709.016907 1040.412354,705.931091 
	C1040.049316,702.180725 1043.186401,699.825623 1046.784546,698.568909 
	C1056.239014,695.266541 1070.106689,700.006042 1073.733643,709.149048 
	C1076.155151,715.253235 1080.060181,715.838196 1085.159546,715.838196 
	C1100.655518,715.838196 1116.152222,715.921692 1131.647095,715.792053 
	C1136.920166,715.747986 1142.188721,715.167480 1147.699951,714.816772 
	C1147.779175,713.632080 1148.143188,712.576843 1147.860596,711.739807 
	C1144.844238,702.806519 1142.827271,693.318604 1138.435547,685.106140 
	C1123.118652,656.463806 1097.516113,643.882507 1066.151611,642.147156 
	C1051.585571,641.341309 1036.833374,640.993164 1022.501526,645.007935 
	C995.879578,652.465332 974.991760,666.573853 968.597229,695.268494 
	C961.652527,726.432251 974.170410,752.049561 1005.730347,762.367981 
	C1012.788513,764.675598 1019.908508,766.794312 1027.000000,769.000000 
	C995.645752,769.000000 964.291565,769.000000 932.424072,768.532959 
	C931.910767,726.819885 931.910767,685.573730 931.910767,644.398193 
	C904.446228,644.398193 877.873535,644.398193 850.571655,644.398193 
	C850.571655,653.106934 850.571655,661.427246 850.571655,670.049744 
	C845.479980,664.735718 841.338013,659.461853 836.274292,655.312805 
	C822.999268,644.435669 807.369446,641.293335 790.465576,641.909424 
	C760.564087,642.999329 738.756409,656.980896 723.874023,682.428284 
	C711.192505,704.112427 708.056091,728.013672 708.159302,752.579956 
	C708.182312,758.054382 708.706543,763.526733 709.000000,769.000000 
M557.005737,351.500000 
	C557.005737,314.765594 557.005737,278.031219 557.005737,241.398102 
	C529.518677,241.398102 502.945251,241.398102 476.298523,241.398102 
	C476.298523,331.687317 476.298523,421.578003 476.298523,511.536224 
	C503.343597,511.536224 530.032715,511.536224 557.177368,511.536224 
	C557.177368,484.397186 557.177368,457.718903 557.177368,430.207275 
	C558.248657,431.594421 558.804932,432.194244 559.226013,432.877350 
	C574.588318,457.800140 589.996765,482.694977 605.214294,507.705963 
	C607.087036,510.783966 609.032227,512.097717 612.705933,512.079773 
	C642.034241,511.936798 671.363586,512.004395 700.692566,511.984009 
	C701.881592,511.983185 703.070496,511.748505 704.741028,511.571838 
	C698.849915,503.946472 693.369934,496.848053 687.884521,489.753815 
	C668.058716,464.113190 648.259399,438.451935 628.356628,412.871155 
	C626.542114,410.539032 626.202209,408.897614 628.091248,406.379272 
	C646.845154,381.377808 665.493042,356.296783 684.147095,331.220520 
	C690.158875,323.138947 696.100037,315.004883 702.760315,305.962402 
	C699.449890,305.602356 697.224915,305.136444 695.003540,305.152893 
	C667.865295,305.353790 640.727783,305.714874 613.589478,305.776611 
	C609.781006,305.785278 607.566895,306.953705 605.503479,310.083282 
	C590.756958,332.449127 575.840393,354.702972 560.967896,376.985718 
	C559.950867,378.509521 558.852234,379.978912 557.005737,382.580872 
	C557.005737,371.486237 557.005737,361.993103 557.005737,351.500000 
M16.456842,348.988861 
	C9.085105,362.875580 5.291105,377.942963 4.264445,393.377441 
	C2.400278,421.402771 4.738763,448.890991 19.443113,473.958405 
	C26.483822,485.961121 35.606689,495.993958 47.499828,503.128601 
	C63.154053,512.519531 80.038788,516.669617 98.474442,514.097290 
	C113.469254,512.005066 126.711403,506.742676 137.137009,495.465912 
	C140.014862,492.353058 142.628693,488.996063 146.036377,484.952972 
	C146.036377,494.350983 146.036377,502.878448 146.036377,511.563110 
	C173.294647,511.563110 199.979553,511.563110 226.548798,511.563110 
	C226.548798,442.580597 226.548798,374.035919 226.548798,305.532776 
	C199.531891,305.532776 172.968307,305.532776 145.896240,305.532776 
	C145.896240,314.614655 145.896240,323.294250 145.896240,332.743134 
	C143.140442,329.101501 141.168121,326.010132 138.727417,323.348236 
	C122.140556,305.258026 100.774246,300.351593 77.678856,303.546082 
	C49.720356,307.413300 29.527689,323.103119 16.456842,348.988861 
M1192.206421,507.791138 
	C1195.563354,506.341034 1198.939087,504.932434 1202.274414,503.434265 
	C1226.445068,492.577179 1242.808105,474.412323 1252.171997,449.806976 
	C1259.309448,431.051575 1260.366577,411.654938 1258.063721,391.897125 
	C1255.790771,372.394714 1248.827515,354.814514 1236.169922,339.813385 
	C1217.268433,317.412048 1192.401733,305.830566 1163.696411,303.309174 
	C1137.624756,301.019043 1112.229248,304.361938 1089.197998,318.373047 
	C1067.846680,331.362061 1053.219360,349.539276 1045.889526,373.540680 
	C1040.808838,390.177246 1039.983032,407.053314 1041.895630,424.267700 
	C1044.383057,446.654785 1052.770020,466.340332 1068.303955,482.643738 
	C1089.223022,504.598907 1116.108521,513.124634 1145.431641,514.851135 
	C1161.091064,515.773071 1176.501099,512.934937 1192.206421,507.791138 
M804.925049,322.638702 
	C805.028809,320.889618 805.132629,319.140564 805.256226,317.056793 
	C807.819519,317.056793 809.798584,317.056793 811.777588,317.056793 
	C841.606384,317.056763 871.435547,316.977356 901.263428,317.143799 
	C905.648926,317.168243 907.027771,315.846191 906.974304,311.455627 
	C906.763184,294.127533 906.903198,276.795319 906.879822,259.464661 
	C906.871277,253.152512 906.640686,252.945953 900.473938,252.945526 
	C843.315979,252.941559 786.158081,252.943192 729.000122,252.943192 
	C727.226501,252.943192 725.452942,252.943192 723.529541,252.943192 
	C723.529541,339.632446 723.529541,425.647369 723.529541,511.527435 
	C750.856323,511.527435 777.736938,511.527435 805.237671,511.527435 
	C805.237671,478.839600 805.237671,446.621033 805.237671,413.826691 
	C829.759766,413.826691 853.660706,413.826691 877.642212,413.826691 
	C877.642212,393.335388 877.642212,373.432343 877.642212,352.799194 
	C853.278687,352.799194 829.248169,352.799194 804.924683,352.799194 
	C804.924683,342.581085 804.924683,333.092834 804.925049,322.638702 
M422.991516,404.497589 
	C416.628784,400.961212 410.631592,396.250458 403.827332,394.132660 
	C389.603333,389.705505 374.924713,386.756348 360.491791,382.975189 
	C353.937805,381.258179 347.336548,379.454651 341.106903,376.852173 
	C336.240234,374.819092 334.631866,370.440918 336.113617,365.645508 
	C337.496735,361.169342 341.082336,359.748260 345.525787,359.984131 
	C347.353394,360.081146 349.191742,360.045807 351.022980,359.992554 
	C360.461914,359.718018 367.129486,363.907562 370.268433,372.778687 
	C371.534302,376.356262 373.424438,377.086395 376.834290,377.064941 
	C397.493713,376.934998 418.154358,377.000214 438.814575,377.000214 
	C440.372894,377.000214 441.931213,377.000214 444.042145,377.000214 
	C442.871979,371.906281 442.144989,367.654419 440.912811,363.554382 
	C432.980591,337.159485 416.491699,318.283020 390.367401,309.124542 
	C365.209686,300.304901 339.459991,300.687897 313.828827,307.590668 
	C300.066010,311.297119 287.547211,317.871887 278.255310,328.655487 
	C264.292450,344.859833 258.954224,363.614532 263.671783,385.176849 
	C267.520752,402.769348 278.165985,414.430389 293.970306,420.828094 
	C306.339386,425.835144 319.680389,428.475800 332.642365,431.972137 
	C342.086914,434.519714 351.682800,436.520142 361.083496,439.210846 
	C366.165070,440.665222 369.336884,445.576599 368.841431,449.660431 
	C368.307587,454.061035 363.982544,457.788727 358.371979,457.948090 
	C354.092651,458.069641 349.717773,457.811432 345.516449,457.023438 
	C338.514191,455.710175 333.888519,451.172607 332.162323,444.370850 
	C331.248779,440.771118 329.551086,440.046295 326.250549,440.061737 
	C303.424866,440.168671 280.598389,440.112640 257.772186,440.131134 
	C256.323669,440.132324 254.875275,440.319916 253.369995,440.424744 
	C253.236252,441.634552 252.956818,442.481781 253.083282,443.263306 
	C256.544189,464.651764 266.898438,481.754944 284.605011,494.427246 
	C303.814148,508.174866 325.849854,513.351562 348.768341,514.813904 
	C366.260712,515.929993 383.656738,513.519470 400.082520,507.021545 
	C425.182434,497.092224 445.279541,476.380829 443.272705,445.084564 
	C442.214844,428.587372 436.482391,415.211884 422.991516,404.497589 
M1015.065186,468.500000 
	C1015.065186,392.802979 1015.065186,317.105957 1015.065186,241.332733 
	C987.665283,241.332733 961.104736,241.332733 934.405823,241.332733 
	C934.405823,331.644196 934.405823,421.622345 934.405823,511.664612 
	C961.375610,511.664612 987.938293,511.664612 1015.065308,511.664612 
	C1015.065308,497.390778 1015.065308,483.445404 1015.065186,468.500000 
z"/>
<path fill="#9EBAF6" opacity="1.000000" stroke="none" 
	d="
M846.531372,1.000000 
	C844.807678,11.365220 842.814270,21.777252 840.388672,32.087589 
	C829.632385,77.807808 818.727417,123.493042 807.966736,169.212234 
	C807.165527,172.616333 805.901367,174.065414 802.032532,174.037399 
	C774.711304,173.839539 747.387268,173.833313 720.066162,174.038406 
	C715.950684,174.069290 714.735596,172.480515 713.974121,168.858398 
	C706.330750,132.500397 698.547119,96.171883 689.917480,59.680714 
	C688.312256,66.322327 686.621155,72.944557 685.116638,79.608902 
	C678.356750,109.552200 671.652344,139.508011 664.919067,169.457321 
	C664.365173,171.921097 663.934326,174.034027 660.334045,174.014236 
	C631.679565,173.856842 603.023865,173.916672 574.368530,173.896439 
	C573.885681,173.896103 573.402954,173.728043 572.397949,173.541138 
	C569.380188,161.181091 566.246704,148.670135 563.277283,136.120346 
	C556.322327,106.726089 549.419800,77.319344 542.548889,47.905315 
	C538.963928,32.558170 535.490479,17.184967 531.983276,1.411770 
	C557.354248,1.000000 582.708435,1.000000 608.526611,1.435553 
	C609.020142,2.702606 608.978821,3.543721 609.089966,4.364186 
	C611.445801,21.752943 613.786499,39.143867 616.199768,56.524696 
	C617.792603,67.996658 619.494385,79.453491 621.147339,90.917099 
	C621.407898,90.915245 621.668457,90.913391 621.929016,90.911545 
	C628.286011,60.941029 634.643005,30.970514 641.000000,1.000000 
	C674.687561,1.000000 708.375122,1.000000 742.493774,1.428632 
	C743.181152,3.657141 743.318176,5.483533 743.711609,7.252904 
	C749.426575,32.956112 755.174438,58.652020 760.919556,84.348526 
	C761.453186,86.735374 762.021423,89.114502 762.573608,91.497215 
	C763.713013,90.527359 763.862305,89.752663 763.969910,88.972206 
	C765.886475,75.070999 767.807373,61.170380 769.707764,47.266953 
	C771.815552,31.846052 773.903442,16.422434 776.000000,0.999998 
	C799.354248,1.000000 822.708435,1.000000 846.531372,1.000000 
z"/>
<path fill="#9EBAF6" opacity="1.000000" stroke="none" 
	d="
M493.531342,1.000002 
	C495.002289,2.672858 495.893188,4.425394 497.023987,6.006374 
	C509.810242,23.883484 515.933899,43.770008 516.095947,65.772530 
	C516.224426,83.208984 514.976318,100.300568 507.723999,116.421677 
	C493.877472,147.200943 469.704987,165.339432 437.302155,172.840775 
	C428.147491,174.960129 418.623749,177.013565 409.334259,176.755859 
	C370.497833,175.678543 336.475616,164.030701 314.089600,129.508759 
	C305.431366,116.156624 301.085541,101.253342 299.037445,85.583336 
	C296.102264,63.126198 299.216553,41.534958 308.952606,21.122650 
	C312.210388,14.292459 316.911255,8.150566 320.976257,1.347025 
	C378.354218,1.000000 435.708466,1.000000 493.531342,1.000002 
M412.668579,35.432384 
	C398.568207,32.770027 387.823090,41.390934 384.200623,51.251537 
	C379.535339,63.950836 379.314941,76.922104 384.082458,89.732666 
	C387.784729,99.680786 397.075134,106.004997 407.546082,105.989632 
	C417.708618,105.974716 427.280884,99.241394 430.963989,89.533203 
	C435.180908,78.417801 435.104523,67.070137 432.316376,55.737717 
	C429.833405,45.645718 423.650391,38.704617 412.668579,35.432384 
z"/>
<path fill="#95E0C7" opacity="1.000000" stroke="none" 
	d="
M1180.468628,769.000000 
	C1180.038940,714.382629 1180.078613,659.765320 1180.116089,605.147949 
	C1180.121704,597.013489 1180.116943,588.879089 1180.116943,580.061035 
	C1207.341553,578.218506 1234.201904,579.648438 1261.615234,579.082092 
	C1261.615234,626.055664 1261.615234,672.566345 1261.615234,719.076965 
	C1261.957520,719.198547 1262.299927,719.320129 1262.642212,719.441711 
	C1263.573486,718.225708 1264.576416,717.057678 1265.425171,715.786560 
	C1280.386841,693.378357 1295.388672,670.996460 1310.211182,648.496460 
	C1312.347656,645.253357 1314.563232,643.824036 1318.606079,643.891724 
	C1334.421143,644.156677 1350.243286,644.000000 1366.531372,644.000000 
	C1367.000000,662.354248 1367.000000,680.708435 1366.680176,699.641846 
	C1355.028687,715.297607 1343.729248,730.398560 1332.334229,745.426941 
	C1330.440186,747.924927 1331.665771,749.595215 1333.122681,751.539001 
	C1337.460083,757.325623 1341.713745,763.175049 1346.000000,769.000000 
	C1290.979126,769.000000 1235.958130,769.000000 1180.468628,769.000000 
z"/>
<path fill="#95E0C7" opacity="1.000000" stroke="none" 
	d="
M547.468628,769.000000 
	C547.000000,731.558167 547.000000,694.116333 547.000000,656.125366 
	C524.320984,656.125366 502.090393,656.125366 479.424072,656.125366 
	C479.424072,634.368774 479.424072,613.155701 479.424072,591.506409 
	C551.647034,591.506409 623.976746,591.506409 696.685608,591.506409 
	C696.685608,612.770386 696.685608,633.979492 696.685608,655.775391 
	C674.026245,655.775391 651.462891,655.775391 628.084961,655.775391 
	C628.084961,693.591736 628.084961,730.828674 628.042480,768.532837 
	C601.312439,769.000000 574.624878,769.000000 547.468628,769.000000 
z"/>
<path fill="#95E0C7" opacity="1.000000" stroke="none" 
	d="
M709.468628,769.000000 
	C708.706543,763.526733 708.182312,758.054382 708.159302,752.579956 
	C708.056091,728.013672 711.192505,704.112427 723.874023,682.428284 
	C738.756409,656.980896 760.564087,642.999329 790.465576,641.909424 
	C807.369446,641.293335 822.999268,644.435669 836.274292,655.312805 
	C841.338013,659.461853 845.479980,664.735718 850.571655,670.049744 
	C850.571655,661.427246 850.571655,653.106934 850.571655,644.398193 
	C877.873535,644.398193 904.446228,644.398193 931.910767,644.398193 
	C931.910767,685.573730 931.910767,726.819885 931.955383,768.532959 
	C903.645752,769.000000 875.291565,769.000000 846.462891,768.624756 
	C851.518982,757.273926 851.120422,745.638123 848.850647,734.154785 
	C846.669678,723.120239 836.116272,713.923889 826.150818,712.997742 
	C810.438599,711.537476 800.314758,716.286316 794.701843,728.656799 
	C788.567444,742.176880 789.268921,755.754272 796.000000,769.000000 
	C767.312439,769.000000 738.624878,769.000000 709.468628,769.000000 
M850.604675,671.481567 
	C850.604675,671.481567 850.470459,671.572815 850.604675,671.481567 
z"/>
<path fill="#95E0C7" opacity="1.000000" stroke="none" 
	d="
M1027.468628,769.000000 
	C1019.908508,766.794312 1012.788513,764.675598 1005.730347,762.367981 
	C974.170410,752.049561 961.652527,726.432251 968.597229,695.268494 
	C974.991760,666.573853 995.879578,652.465332 1022.501526,645.007935 
	C1036.833374,640.993164 1051.585571,641.341309 1066.151611,642.147156 
	C1097.516113,643.882507 1123.118652,656.463806 1138.435547,685.106140 
	C1142.827271,693.318604 1144.844238,702.806519 1147.860596,711.739807 
	C1148.143188,712.576843 1147.779175,713.632080 1147.699951,714.816772 
	C1142.188721,715.167480 1136.920166,715.747986 1131.647095,715.792053 
	C1116.152222,715.921692 1100.655518,715.838196 1085.159546,715.838196 
	C1080.060181,715.838196 1076.155151,715.253235 1073.733643,709.149048 
	C1070.106689,700.006042 1056.239014,695.266541 1046.784546,698.568909 
	C1043.186401,699.825623 1040.049316,702.180725 1040.412354,705.931091 
	C1040.710938,709.016907 1042.439453,713.617737 1044.751465,714.559753 
	C1053.286377,718.037109 1062.277954,720.447937 1071.188110,722.937439 
	C1085.084473,726.820251 1099.483643,729.321777 1112.880615,734.464539 
	C1128.433716,740.434875 1140.298218,751.296021 1145.031250,768.613953 
	C1105.979126,769.000000 1066.958130,769.000000 1027.468628,769.000000 
z"/>
<path fill="#9EBAF6" opacity="1.000000" stroke="none" 
	d="
M61.531342,1.000000 
	C62.000000,5.447246 62.000000,9.894491 62.000000,14.859109 
	C86.505783,14.859109 110.404640,14.859109 134.689911,14.859109 
	C134.689911,35.284779 134.689911,55.181709 134.689911,75.768318 
	C110.776619,75.768318 86.752899,75.768318 62.186310,75.768318 
	C62.186310,108.665489 62.186310,140.883041 62.186310,173.947739 
	C41.742920,173.947739 21.839548,173.947739 1.468087,173.973877 
	C1.000000,116.441322 1.000000,58.882641 1.000000,1.000000 
	C21.019730,1.000000 41.041206,1.000000 61.531342,1.000000 
z"/>
<path fill="#CFA4F5" opacity="1.000000" stroke="none" 
	d="
M1367.000000,511.531342 
	C1351.173096,511.999969 1335.345459,511.910645 1319.520142,512.069702 
	C1316.052368,512.104553 1314.664185,511.021576 1313.847900,507.551971 
	C1299.071167,444.735596 1284.135864,381.956543 1269.272217,319.160583 
	C1268.295288,315.033936 1267.622192,310.835388 1266.733643,306.290466 
	C1272.171143,305.864380 1276.929321,305.200165 1281.691528,305.169464 
	C1300.849487,305.045898 1320.008789,305.107513 1339.167603,305.123779 
	C1346.522705,305.130035 1347.123779,306.010284 1348.021484,313.155731 
	C1350.045776,329.266998 1352.400391,345.336609 1354.595581,361.426605 
	C1356.746216,377.190582 1358.859131,392.959686 1361.002319,408.724701 
	C1361.884155,415.211884 1362.801392,421.694214 1364.628418,428.104645 
	C1365.241821,425.248199 1365.855347,422.391754 1366.734375,419.267639 
	C1367.000000,449.687561 1367.000000,480.375122 1367.000000,511.531342 
z"/>
<path fill="#9EBAF6" opacity="1.000000" stroke="none" 
	d="
M272.531311,1.000000 
	C272.967163,56.486145 272.934326,111.972290 272.901672,167.458435 
	C272.900513,169.407715 272.901550,171.356995 272.901550,173.614410 
	C245.538467,173.614410 218.780045,173.614410 191.082382,173.614410 
	C191.082382,116.390251 191.082382,59.162369 191.041199,1.467244 
	C218.020889,1.000000 245.041794,1.000000 272.531311,1.000000 
z"/>
<path fill="#FEFFFF" opacity="1.000000" stroke="none" 
	d="
M796.468628,769.000000 
	C789.268921,755.754272 788.567444,742.176880 794.701843,728.656799 
	C800.314758,716.286316 810.438599,711.537476 826.150818,712.997742 
	C836.116272,713.923889 846.669678,723.120239 848.850647,734.154785 
	C851.120422,745.638123 851.518982,757.273926 845.994263,768.624756 
	C829.645752,769.000000 813.291565,769.000000 796.468628,769.000000 
z"/>
<path fill="#FDFDFF" opacity="1.000000" stroke="none" 
	d="
M775.531372,0.999998 
	C773.903442,16.422434 771.815552,31.846052 769.707764,47.266953 
	C767.807373,61.170380 765.886475,75.070999 763.969910,88.972206 
	C763.862305,89.752663 763.713013,90.527359 762.573608,91.497215 
	C762.021423,89.114502 761.453186,86.735374 760.919556,84.348526 
	C755.174438,58.652020 749.426575,32.956112 743.711609,7.252904 
	C743.318176,5.483533 743.181152,3.657141 742.962463,1.428632 
	C753.687561,1.000000 764.375122,1.000000 775.531372,0.999998 
z"/>
<path fill="#FEFEFF" opacity="1.000000" stroke="none" 
	d="
M640.531372,1.000000 
	C634.643005,30.970514 628.286011,60.941029 621.929016,90.911545 
	C621.668457,90.913391 621.407898,90.915245 621.147339,90.917099 
	C619.494385,79.453491 617.792603,67.996658 616.199768,56.524696 
	C613.786499,39.143867 611.445801,21.752943 609.089966,4.364186 
	C608.978821,3.543721 609.020142,2.702606 608.995239,1.435553 
	C619.354248,1.000000 629.708435,1.000000 640.531372,1.000000 
z"/>
<path fill="#FEFFFF" opacity="1.000000" stroke="none" 
	d="
M1346.468872,769.000000 
	C1341.713745,763.175049 1337.460083,757.325623 1333.122681,751.539001 
	C1331.665771,749.595215 1330.440186,747.924927 1332.334229,745.426941 
	C1343.729248,730.398560 1355.028687,715.297607 1366.680176,700.110474 
	C1367.000000,722.887512 1367.000000,745.775024 1367.000000,769.000000 
	C1360.316406,769.000000 1353.627075,769.000000 1346.468872,769.000000 
z"/>
<path fill="#CFA4F5" opacity="1.000000" stroke="none" 
	d="
M557.005737,352.000000 
	C557.005737,361.993103 557.005737,371.486237 557.005737,382.580872 
	C558.852234,379.978912 559.950867,378.509521 560.967896,376.985718 
	C575.840393,354.702972 590.756958,332.449127 605.503479,310.083282 
	C607.566895,306.953705 609.781006,305.785278 613.589478,305.776611 
	C640.727783,305.714874 667.865295,305.353790 695.003540,305.152893 
	C697.224915,305.136444 699.449890,305.602356 702.760315,305.962402 
	C696.100037,315.004883 690.158875,323.138947 684.147095,331.220520 
	C665.493042,356.296783 646.845154,381.377808 628.091248,406.379272 
	C626.202209,408.897614 626.542114,410.539032 628.356628,412.871155 
	C648.259399,438.451935 668.058716,464.113190 687.884521,489.753815 
	C693.369934,496.848053 698.849915,503.946472 704.741028,511.571838 
	C703.070496,511.748505 701.881592,511.983185 700.692566,511.984009 
	C671.363586,512.004395 642.034241,511.936798 612.705933,512.079773 
	C609.032227,512.097717 607.087036,510.783966 605.214294,507.705963 
	C589.996765,482.694977 574.588318,457.800140 559.226013,432.877350 
	C558.804932,432.194244 558.248657,431.594421 557.177368,430.207275 
	C557.177368,457.718903 557.177368,484.397186 557.177368,511.536224 
	C530.032715,511.536224 503.343597,511.536224 476.298523,511.536224 
	C476.298523,421.578003 476.298523,331.687317 476.298523,241.398102 
	C502.945251,241.398102 529.518677,241.398102 557.005737,241.398102 
	C557.005737,278.031219 557.005737,314.765594 557.005737,352.000000 
z"/>
<path fill="#CFA4F5" opacity="1.000000" stroke="none" 
	d="
M16.638916,348.662140 
	C29.527689,323.103119 49.720356,307.413300 77.678856,303.546082 
	C100.774246,300.351593 122.140556,305.258026 138.727417,323.348236 
	C141.168121,326.010132 143.140442,329.101501 145.896240,332.743134 
	C145.896240,323.294250 145.896240,314.614655 145.896240,305.532776 
	C172.968307,305.532776 199.531891,305.532776 226.548798,305.532776 
	C226.548798,374.035919 226.548798,442.580597 226.548798,511.563110 
	C199.979553,511.563110 173.294647,511.563110 146.036377,511.563110 
	C146.036377,502.878448 146.036377,494.350983 146.036377,484.952972 
	C142.628693,488.996063 140.014862,492.353058 137.137009,495.465912 
	C126.711403,506.742676 113.469254,512.005066 98.474442,514.097290 
	C80.038788,516.669617 63.154053,512.519531 47.499828,503.128601 
	C35.606689,495.993958 26.483822,485.961121 19.443113,473.958405 
	C4.738763,448.890991 2.400278,421.402771 4.264445,393.377441 
	C5.291105,377.942963 9.085105,362.875580 16.638916,348.662140 
M132.874603,438.483582 
	C134.782211,436.672791 137.009827,435.097534 138.544724,433.012360 
	C147.479538,420.874634 148.034348,407.357391 143.584717,393.669098 
	C140.037125,382.755737 132.055176,375.718536 120.496208,374.212311 
	C108.335991,372.627808 98.154739,376.846039 91.420486,387.448425 
	C86.326935,395.467712 85.550583,404.569244 86.090096,413.845795 
	C87.490364,437.922302 112.075287,451.262421 132.874603,438.483582 
z"/>
<path fill="#CFA4F5" opacity="1.000000" stroke="none" 
	d="
M1191.826416,507.895447 
	C1176.501099,512.934937 1161.091064,515.773071 1145.431641,514.851135 
	C1116.108521,513.124634 1089.223022,504.598907 1068.303955,482.643738 
	C1052.770020,466.340332 1044.383057,446.654785 1041.895630,424.267700 
	C1039.983032,407.053314 1040.808838,390.177246 1045.889526,373.540680 
	C1053.219360,349.539276 1067.846680,331.362061 1089.197998,318.373047 
	C1112.229248,304.361938 1137.624756,301.019043 1163.696411,303.309174 
	C1192.401733,305.830566 1217.268433,317.412048 1236.169922,339.813385 
	C1248.827515,354.814514 1255.790771,372.394714 1258.063721,391.897125 
	C1260.366577,411.654938 1259.309448,431.051575 1252.171997,449.806976 
	C1242.808105,474.412323 1226.445068,492.577179 1202.274414,503.434265 
	C1198.939087,504.932434 1195.563354,506.341034 1191.826416,507.895447 
M1123.998779,418.373444 
	C1124.345825,419.993744 1124.707642,421.611053 1125.037598,423.234833 
	C1127.163574,433.696136 1136.534912,442.892242 1146.171631,443.964966 
	C1158.322754,445.317535 1169.245605,439.489288 1173.247803,428.057281 
	C1177.861816,414.877838 1178.239868,401.099792 1172.722534,388.119843 
	C1165.494751,371.115631 1142.983032,369.279297 1132.786133,380.735046 
	C1123.329102,391.359558 1121.664185,404.015564 1123.998779,418.373444 
z"/>
<path fill="#CFA4F5" opacity="1.000000" stroke="none" 
	d="
M804.924866,323.121643 
	C804.924683,333.092834 804.924683,342.581085 804.924683,352.799194 
	C829.248169,352.799194 853.278687,352.799194 877.642212,352.799194 
	C877.642212,373.432343 877.642212,393.335388 877.642212,413.826691 
	C853.660706,413.826691 829.759766,413.826691 805.237671,413.826691 
	C805.237671,446.621033 805.237671,478.839600 805.237671,511.527435 
	C777.736938,511.527435 750.856323,511.527435 723.529541,511.527435 
	C723.529541,425.647369 723.529541,339.632446 723.529541,252.943192 
	C725.452942,252.943192 727.226501,252.943192 729.000122,252.943192 
	C786.158081,252.943192 843.315979,252.941559 900.473938,252.945526 
	C906.640686,252.945953 906.871277,253.152512 906.879822,259.464661 
	C906.903198,276.795319 906.763184,294.127533 906.974304,311.455627 
	C907.027771,315.846191 905.648926,317.168243 901.263428,317.143799 
	C871.435547,316.977356 841.606384,317.056763 811.777588,317.056793 
	C809.798584,317.056793 807.819519,317.056793 805.256226,317.056793 
	C805.132629,319.140564 805.028809,320.889618 804.924866,323.121643 
z"/>
<path fill="#CFA4F5" opacity="1.000000" stroke="none" 
	d="
M423.254272,404.740601 
	C436.482391,415.211884 442.214844,428.587372 443.272705,445.084564 
	C445.279541,476.380829 425.182434,497.092224 400.082520,507.021545 
	C383.656738,513.519470 366.260712,515.929993 348.768341,514.813904 
	C325.849854,513.351562 303.814148,508.174866 284.605011,494.427246 
	C266.898438,481.754944 256.544189,464.651764 253.083282,443.263306 
	C252.956818,442.481781 253.236252,441.634552 253.369995,440.424744 
	C254.875275,440.319916 256.323669,440.132324 257.772186,440.131134 
	C280.598389,440.112640 303.424866,440.168671 326.250549,440.061737 
	C329.551086,440.046295 331.248779,440.771118 332.162323,444.370850 
	C333.888519,451.172607 338.514191,455.710175 345.516449,457.023438 
	C349.717773,457.811432 354.092651,458.069641 358.371979,457.948090 
	C363.982544,457.788727 368.307587,454.061035 368.841431,449.660431 
	C369.336884,445.576599 366.165070,440.665222 361.083496,439.210846 
	C351.682800,436.520142 342.086914,434.519714 332.642365,431.972137 
	C319.680389,428.475800 306.339386,425.835144 293.970306,420.828094 
	C278.165985,414.430389 267.520752,402.769348 263.671783,385.176849 
	C258.954224,363.614532 264.292450,344.859833 278.255310,328.655487 
	C287.547211,317.871887 300.066010,311.297119 313.828827,307.590668 
	C339.459991,300.687897 365.209686,300.304901 390.367401,309.124542 
	C416.491699,318.283020 432.980591,337.159485 440.912811,363.554382 
	C442.144989,367.654419 442.871979,371.906281 444.042145,377.000214 
	C441.931213,377.000214 440.372894,377.000214 438.814575,377.000214 
	C418.154358,377.000214 397.493713,376.934998 376.834290,377.064941 
	C373.424438,377.086395 371.534302,376.356262 370.268433,372.778687 
	C367.129486,363.907562 360.461914,359.718018 351.022980,359.992554 
	C349.191742,360.045807 347.353394,360.081146 345.525787,359.984131 
	C341.082336,359.748260 337.496735,361.169342 336.113617,365.645508 
	C334.631866,370.440918 336.240234,374.819092 341.106903,376.852173 
	C347.336548,379.454651 353.937805,381.258179 360.491791,382.975189 
	C374.924713,386.756348 389.603333,389.705505 403.827332,394.132660 
	C410.631592,396.250458 416.628784,400.961212 423.254272,404.740601 
z"/>
<path fill="#CFA4F5" opacity="1.000000" stroke="none" 
	d="
M1015.065247,469.000000 
	C1015.065308,483.445404 1015.065308,497.390778 1015.065308,511.664612 
	C987.938293,511.664612 961.375610,511.664612 934.405823,511.664612 
	C934.405823,421.622345 934.405823,331.644196 934.405823,241.332733 
	C961.104736,241.332733 987.665283,241.332733 1015.065186,241.332733 
	C1015.065186,317.105957 1015.065186,392.802979 1015.065247,469.000000 
z"/>
<path fill="#FEFEFF" opacity="1.000000" stroke="none" 
	d="
M413.058075,35.577347 
	C423.650391,38.704617 429.833405,45.645718 432.316376,55.737717 
	C435.104523,67.070137 435.180908,78.417801 430.963989,89.533203 
	C427.280884,99.241394 417.708618,105.974716 407.546082,105.989632 
	C397.075134,106.004997 387.784729,99.680786 384.082458,89.732666 
	C379.314941,76.922104 379.535339,63.950836 384.200623,51.251537 
	C387.823090,41.390934 398.568207,32.770027 413.058075,35.577347 
z"/>
<path fill="#D9F3EB" opacity="1.000000" stroke="none" 
	d="
M850.537598,671.527222 
	C850.470459,671.572815 850.604675,671.481567 850.537598,671.527222 
z"/>
<path fill="#FFFFFF" opacity="1.000000" stroke="none" 
	d="
M132.558807,438.679199 
	C112.075287,451.262421 87.490364,437.922302 86.090096,413.845795 
	C85.550583,404.569244 86.326935,395.467712 91.420486,387.448425 
	C98.154739,376.846039 108.335991,372.627808 120.496208,374.212311 
	C132.055176,375.718536 140.037125,382.755737 143.584717,393.669098 
	C148.034348,407.357391 147.479538,420.874634 138.544724,433.012360 
	C137.009827,435.097534 134.782211,436.672791 132.558807,438.679199 
z"/>
<path fill="#FFFFFF" opacity="1.000000" stroke="none" 
	d="
M1123.889038,417.954803 
	C1121.664185,404.015564 1123.329102,391.359558 1132.786133,380.735046 
	C1142.983032,369.279297 1165.494751,371.115631 1172.722534,388.119843 
	C1178.239868,401.099792 1177.861816,414.877838 1173.247803,428.057281 
	C1169.245605,439.489288 1158.322754,445.317535 1146.171631,443.964966 
	C1136.534912,442.892242 1127.163574,433.696136 1125.037598,423.234833 
	C1124.707642,421.611053 1124.345825,419.993744 1123.889038,417.954803 
z"/>
</svg>