<svg version="1.1" id="Layer_1" xmlns="http://www.w3.org/2000/svg" xmlns:xlink="http://www.w3.org/1999/xlink" x="0px" y="0px"
	 width="100%" viewBox="0 0 1366 768" enable-background="new 0 0 1366 768" xml:space="preserve">
<path fill="#FFFFFF" opacity="1.000000" stroke="none" 
	d="
M709.000000,769.000000 
	C682.312439,769.000000 655.624878,769.000000 628.543640,768.536133 
	C628.149963,730.809387 628.149963,693.546509 628.149963,655.738281 
	C651.504333,655.738281 674.085571,655.738281 696.721680,655.738281 
	C696.721680,633.969360 696.721680,612.752502 696.721680,591.551758 
	C623.970520,591.551758 551.605469,591.551758 479.241608,591.551758 
	C479.241608,613.089661 479.241608,634.194763 479.241608,655.952148 
	C501.882019,655.952148 524.257874,655.952148 547.000000,655.952148 
	C547.000000,694.070374 547.000000,731.535156 547.000000,769.000000 
	C365.069763,769.000000 183.139542,769.000000 1.000000,769.000000 
	C1.000000,570.979126 1.000000,372.958221 1.466942,174.423859 
	C21.840664,173.910400 41.747444,173.910400 62.133423,173.910400 
	C62.133423,140.915237 62.133423,108.694649 62.133423,75.894531 
	C86.652962,75.894531 110.691734,75.894531 134.723892,75.894531 
	C134.723892,55.278164 134.723892,35.250153 134.723892,14.776120 
	C110.401711,14.776120 86.492493,14.776120 62.000000,14.776120 
	C62.000000,9.893888 62.000000,5.446944 62.000000,1.000000 
	C104.687561,1.000000 147.375122,1.000000 190.602142,1.464393 
	C191.141602,59.146782 191.141602,116.364784 191.141602,173.574707 
	C218.789337,173.574707 245.536316,173.574707 272.837677,173.574707 
	C272.837677,171.312103 272.837677,169.358444 272.837677,167.404785 
	C272.837677,134.088715 272.818024,100.772621 272.844574,67.456566 
	C272.862244,45.304348 272.945892,23.152185 273.000000,1.000000 
	C288.687561,1.000000 304.375122,1.000000 320.519653,1.347435 
	C316.920410,8.159891 312.232666,14.318904 308.924438,21.146347 
	C298.283844,43.105995 296.275848,66.344795 299.881592,90.269188 
	C304.117035,118.371277 317.196777,141.261322 340.898041,157.139908 
	C369.593719,176.364487 401.516754,180.008530 434.721497,173.408539 
	C462.282013,167.930450 484.889618,154.221664 500.350952,130.089172 
	C513.117004,110.163498 517.190002,88.160957 516.301941,64.815620 
	C515.434937,42.023880 509.065704,21.310602 494.885254,3.220754 
	C494.413513,2.618987 494.287262,1.746372 494.000000,1.000003 
	C506.354218,1.000000 518.708435,1.000000 531.496094,1.410362 
	C532.003845,2.482358 532.010742,3.159894 532.162231,3.803364 
	C541.838684,44.886044 551.515625,85.968605 561.219666,127.044769 
	C564.880493,142.540680 568.606384,158.021240 572.336731,173.651703 
	C602.942566,173.651703 633.205933,173.651703 663.902405,173.651703 
	C672.546875,135.574509 681.170776,97.587700 689.794678,59.600891 
	C690.113953,59.629791 690.433289,59.658695 690.752563,59.687595 
	C698.888611,97.724449 707.024597,135.761292 715.179016,173.884018 
	C745.217834,173.884018 774.527832,173.835617 803.837158,173.946823 
	C807.400696,173.960342 807.327393,171.446289 807.823975,169.362473 
	C819.072571,122.162239 830.306274,74.958366 841.436768,27.730179 
	C843.523682,18.874922 845.157227,9.912804 847.000000,1.000000 
	C1020.252502,1.000000 1193.505005,1.000000 1367.000000,1.000000 
	C1367.000000,140.020798 1367.000000,279.041748 1366.747070,418.808807 
	C1365.862793,422.406769 1365.231445,425.258636 1364.426392,428.894836 
	C1363.829712,427.431305 1363.356934,426.716583 1363.252441,425.951599 
	C1360.469360,405.545624 1357.728638,385.133850 1354.971191,364.724365 
	C1352.547241,346.783020 1350.018433,328.854980 1347.745605,310.894562 
	C1347.171509,306.358948 1345.283203,305.049072 1340.685059,305.102844 
	C1318.027832,305.367828 1295.365845,305.223328 1272.705444,305.223328 
	C1270.914551,305.223328 1269.123657,305.223328 1266.740479,305.223328 
	C1267.014038,307.488892 1267.054443,309.120911 1267.421387,310.675934 
	C1282.908813,376.321472 1298.454834,441.953278 1313.855591,507.619110 
	C1314.666138,511.075562 1316.035645,512.119324 1319.514038,512.079834 
	C1335.341064,511.899872 1351.171021,512.000366 1367.000000,512.000000 
	C1367.000000,555.687561 1367.000000,599.375122 1366.531372,643.530518 
	C1350.241943,643.998108 1334.418457,644.154663 1318.602173,643.889343 
	C1314.567261,643.821716 1312.368042,645.244629 1310.227539,648.482483 
	C1295.268433,671.109680 1280.123779,693.614258 1265.019775,716.145508 
	C1264.253296,717.288696 1263.314453,718.316345 1261.836914,720.177307 
	C1261.836914,717.290161 1261.836914,715.481384 1261.836914,713.672607 
	C1261.836914,670.706665 1261.770386,627.740417 1261.936157,584.775085 
	C1261.953369,580.317322 1260.662109,579.152771 1256.299438,579.190125 
	C1232.819824,579.391357 1209.336060,579.421204 1185.857422,579.172607 
	C1181.069824,579.121887 1180.098267,580.722046 1180.108276,585.159241 
	C1180.240845,644.445312 1180.198853,703.731812 1180.188721,763.018188 
	C1180.188354,765.012146 1180.065674,767.006042 1180.000000,769.000000 
	C1168.645752,769.000000 1157.291504,769.000000 1145.530884,768.612427 
	C1140.310181,751.302368 1128.503052,740.189819 1112.845459,734.536194 
	C1096.512085,728.638428 1079.184448,725.524963 1062.361206,720.937927 
	C1056.309326,719.287781 1050.125122,717.510132 1044.674805,714.550537 
	C1042.302856,713.262573 1040.692993,708.930725 1040.422485,705.834106 
	C1040.094238,702.075989 1043.149902,699.331543 1046.863281,698.575745 
	C1057.813232,696.347229 1070.451050,698.928345 1074.918823,711.473022 
	C1076.209106,715.096008 1078.091919,715.791565 1081.480103,715.772156 
	C1101.977905,715.654663 1122.476807,715.718384 1142.975342,715.704407 
	C1144.570923,715.703308 1146.166626,715.571106 1147.966675,715.490723 
	C1147.966675,714.130615 1148.093140,713.296082 1147.948486,712.511536 
	C1142.492188,682.897888 1126.881348,660.757263 1098.701294,649.267334 
	C1073.212891,638.875000 1046.474731,638.768127 1020.247192,645.777832 
	C994.291077,652.714966 974.431030,667.758240 968.485291,695.683777 
	C961.805847,727.055481 974.477722,752.284302 1006.193420,762.549194 
	C1013.101318,764.784912 1020.063049,766.854126 1027.000000,769.000000 
	C995.645752,769.000000 964.291565,769.000000 932.389771,768.536621 
	C931.842224,726.835449 931.842224,685.597656 931.842224,644.300903 
	C904.484558,644.300903 877.911987,644.300903 850.533325,644.300903 
	C850.533325,653.008179 850.533325,661.435120 850.533325,666.408203 
	C845.968994,662.827087 840.113647,657.895081 833.915894,653.439331 
	C820.183105,643.566345 804.611755,640.754700 788.015686,641.898682 
	C759.524963,643.862488 738.463806,657.609009 724.107910,681.974548 
	C711.907288,702.682068 708.280090,725.503418 708.186951,749.092102 
	C708.160767,755.726929 708.713074,762.363953 709.000000,769.000000 
M639.941650,427.567719 
	C636.152527,422.711761 632.532959,417.709076 628.509277,413.055939 
	C626.170471,410.351227 626.533997,408.533783 628.560852,405.820496 
	C652.572571,373.677460 676.455811,341.438477 700.351013,309.208496 
	C701.057617,308.255493 701.525940,307.125824 702.333679,305.665955 
	C700.843079,305.455536 700.052673,305.246948 699.262207,305.246429 
	C670.264282,305.227692 641.265808,305.156647 612.269714,305.385956 
	C610.316956,305.401398 607.732056,307.261475 606.539368,309.011963 
	C593.882568,327.588165 581.451294,346.317993 568.951355,365.001068 
	C565.291748,370.470856 561.611145,375.926605 557.940247,381.388794 
	C557.627014,381.298431 557.313843,381.208038 557.000610,381.117676 
	C557.000610,334.600433 557.000610,288.083221 557.000610,241.361115 
	C529.746399,241.361115 503.037872,241.361115 476.206818,241.361115 
	C476.206818,331.629395 476.206818,421.536133 476.206818,511.629578 
	C503.216309,511.629578 529.923157,511.629578 557.034790,511.629578 
	C557.034790,484.542297 557.034790,457.821594 557.034790,429.798767 
	C558.235474,431.662476 558.755127,432.441071 559.247070,433.236664 
	C574.658508,458.158661 590.118652,483.050842 605.407410,508.047882 
	C607.198914,510.976990 609.114624,512.092712 612.557251,512.076904 
	C641.887878,511.942444 671.219421,512.002930 700.550659,511.989685 
	C701.765747,511.989136 702.980774,511.837036 704.808472,511.714447 
	C683.027893,483.459381 661.702332,455.794647 639.941650,427.567719 
M16.432440,348.974426 
	C7.386328,367.057434 4.018993,386.328339 3.810502,406.410522 
	C3.558981,430.637360 7.396329,453.812317 20.022287,474.899689 
	C28.790218,489.543549 40.728031,500.820068 56.393421,507.952637 
	C69.643250,513.985413 83.615059,515.143433 97.873055,513.987427 
	C111.171425,512.909241 123.189507,508.328491 133.138626,499.309021 
	C137.688629,495.184143 141.559311,490.309875 146.315735,485.148712 
	C146.315735,494.476379 146.315735,503.067108 146.315735,511.682068 
	C173.358597,511.682068 199.937134,511.682068 226.647568,511.682068 
	C226.647568,442.817505 226.647568,374.271454 226.647568,305.536438 
	C199.720413,305.536438 173.146912,305.536438 146.053925,305.536438 
	C146.053925,314.527710 146.053925,323.225983 146.053925,331.924225 
	C144.894836,331.908264 144.729614,331.451202 144.465820,331.060669 
	C127.778458,306.356750 103.605522,299.794373 75.829674,303.990936 
	C48.509045,308.118713 29.264519,323.936646 16.432440,348.974426 
M1123.805298,305.220276 
	C1122.838867,305.464264 1121.876465,305.726196 1120.905273,305.949677 
	C1090.747559,312.889038 1067.388916,329.130432 1052.767822,356.730530 
	C1041.310669,378.358063 1038.965698,401.694397 1042.071655,425.610504 
	C1046.239258,457.703369 1061.366821,483.112793 1089.868042,499.345490 
	C1119.444702,516.190796 1151.212524,518.361389 1183.582520,510.104645 
	C1220.378052,500.719086 1244.592285,477.456879 1255.125488,440.692902 
	C1259.721558,424.651337 1260.105957,408.234406 1258.059814,391.729340 
	C1254.732910,364.893951 1243.069214,342.494507 1221.648071,325.841156 
	C1192.771973,303.392090 1159.667114,299.448944 1123.805298,305.220276 
M740.501343,512.000977 
	C761.774475,512.000977 783.047607,512.000977 804.906494,512.000977 
	C804.906494,479.150970 804.906494,446.921051 804.906494,413.996094 
	C829.523499,413.996094 853.560059,413.996094 877.673340,413.996094 
	C877.673340,393.375671 877.673340,373.459198 877.673340,352.889099 
	C853.337708,352.889099 829.289429,352.889099 805.265625,352.889099 
	C805.265625,340.669800 805.265625,329.111084 805.265625,316.941345 
	C839.210876,316.941345 872.763489,316.941345 906.332703,316.941345 
	C906.332703,295.291565 906.332703,274.262329 906.332703,253.263977 
	C845.135986,253.263977 784.400085,253.263977 723.597290,253.263977 
	C723.597290,339.656921 723.597290,425.680420 723.597290,512.000977 
	C729.191650,512.000977 734.346863,512.000977 740.501343,512.000977 
M293.568451,421.017181 
	C296.211487,422.014618 298.787659,423.276123 301.508820,423.964905 
	C315.026642,427.386627 328.594971,430.608337 342.119873,434.002686 
	C348.562897,435.619720 355.040253,437.190399 361.332245,439.290680 
	C366.518799,441.021942 369.417328,445.710663 368.760620,449.918335 
	C368.094177,454.188721 364.071564,457.737274 358.611725,457.947693 
	C354.172638,458.118835 349.609406,457.864777 345.262756,456.993439 
	C338.513550,455.640442 333.918854,451.159729 332.222198,444.590637 
	C331.223236,440.722717 329.334320,440.147949 325.916138,440.165222 
	C303.426056,440.278809 280.935089,440.223877 258.444427,440.223907 
	C256.817566,440.223907 255.190704,440.223907 253.607071,440.223907 
	C253.394333,441.236450 253.157623,441.727997 253.214630,442.182709 
	C256.568146,468.932526 270.972595,488.397858 294.421844,500.405273 
	C328.361298,517.784302 363.992371,519.148987 399.868378,506.962738 
	C413.915955,502.191101 425.722687,493.484680 434.229004,480.781006 
	C442.867981,467.879150 444.652222,453.638397 442.785980,438.768799 
	C441.502960,428.546173 437.811462,419.287079 430.499573,411.500916 
	C422.904266,403.412964 414.236053,396.966614 403.651306,394.000122 
	C387.680420,389.524078 371.416016,386.105621 355.366272,381.894958 
	C349.958069,380.476135 344.664825,378.344543 339.616089,375.920135 
	C335.848511,374.110870 334.860474,370.071655 336.115112,366.425903 
	C336.926331,364.068695 339.152496,361.215057 341.366669,360.493927 
	C351.070435,357.333405 366.086761,359.813660 370.331451,372.844452 
	C371.547058,376.576477 373.526276,377.077545 376.862366,377.058960 
	C397.519806,376.944000 418.178223,377.006744 438.836304,376.989990 
	C440.405090,376.988708 441.973755,376.829132 443.736298,376.732483 
	C443.454834,375.212555 443.276123,374.242706 443.095581,373.273224 
	C437.304138,342.167908 420.172760,320.083862 390.303101,309.099640 
	C368.219086,300.978485 345.244720,300.997131 322.382172,305.461914 
	C303.633942,309.123291 287.025879,317.118164 274.970276,332.655060 
	C255.549469,357.683990 255.184204,403.294037 293.568451,421.017181 
M934.000000,473.500000 
	C934.000000,486.246826 934.000000,498.993652 934.000000,511.671570 
	C961.437012,511.671570 988.027161,511.671570 1014.671326,511.671570 
	C1014.671326,421.328644 1014.671326,331.314667 1014.671326,241.325287 
	C987.639343,241.325287 961.054871,241.325287 934.000000,241.325287 
	C934.000000,318.599426 934.000000,395.549713 934.000000,473.500000 
z"/>
<path fill="#7098F1" opacity="1.000000" stroke="none" 
	d="
M846.531372,1.000000 
	C845.157227,9.912804 843.523682,18.874922 841.436768,27.730179 
	C830.306274,74.958366 819.072571,122.162239 807.823975,169.362473 
	C807.327393,171.446289 807.400696,173.960342 803.837158,173.946823 
	C774.527832,173.835617 745.217834,173.884018 715.179016,173.884018 
	C707.024597,135.761292 698.888611,97.724449 690.752563,59.687595 
	C690.433289,59.658695 690.113953,59.629791 689.794678,59.600891 
	C681.170776,97.587700 672.546875,135.574509 663.902405,173.651703 
	C633.205933,173.651703 602.942566,173.651703 572.336731,173.651703 
	C568.606384,158.021240 564.880493,142.540680 561.219666,127.044769 
	C551.515625,85.968605 541.838684,44.886044 532.162231,3.803364 
	C532.010742,3.159894 532.003845,2.482358 531.964722,1.410362 
	C557.354248,1.000000 582.708435,1.000000 608.521362,1.434289 
	C613.005371,31.590778 617.030762,61.312977 621.056091,91.035179 
	C621.323242,91.043274 621.590332,91.051361 621.857422,91.059456 
	C628.238281,61.039635 634.619141,31.019815 641.000000,0.999998 
	C674.687561,1.000000 708.375122,1.000000 742.463806,1.424708 
	C743.021423,3.171386 743.063721,4.518770 743.351379,5.811584 
	C749.043640,31.397497 754.760620,56.977936 760.484924,82.556725 
	C761.090332,85.261917 761.773132,87.949791 762.419983,90.645706 
	C762.837524,90.584427 763.255066,90.523155 763.672607,90.461884 
	C767.781738,60.641258 771.890869,30.820631 776.000000,1.000003 
	C799.354248,1.000000 822.708435,1.000000 846.531372,1.000000 
z"/>
<path fill="#6F98F1" opacity="1.000000" stroke="none" 
	d="
M493.531342,1.000003 
	C494.287262,1.746372 494.413513,2.618987 494.885254,3.220754 
	C509.065704,21.310602 515.434937,42.023880 516.301941,64.815620 
	C517.190002,88.160957 513.117004,110.163498 500.350952,130.089172 
	C484.889618,154.221664 462.282013,167.930450 434.721497,173.408539 
	C401.516754,180.008530 369.593719,176.364487 340.898041,157.139908 
	C317.196777,141.261322 304.117035,118.371277 299.881592,90.269188 
	C296.275848,66.344795 298.283844,43.105995 308.924438,21.146347 
	C312.232666,14.318904 316.920410,8.159891 320.988312,1.347435 
	C378.354218,1.000000 435.708466,1.000000 493.531342,1.000003 
M430.436005,50.250523 
	C425.460419,40.602085 417.925049,34.792595 406.706970,35.079334 
	C396.582458,35.338123 389.194092,40.625351 385.061249,49.484058 
	C379.354553,61.716320 379.245819,74.726700 383.297119,87.417168 
	C387.302429,99.963699 396.643250,106.310890 408.581787,105.953766 
	C419.370270,105.631042 428.648865,98.112076 432.050537,86.169334 
	C435.409943,74.374832 435.032593,62.542896 430.436005,50.250523 
z"/>
<path fill="#62D0AC" opacity="1.000000" stroke="none" 
	d="
M1180.468628,769.000000 
	C1180.065674,767.006042 1180.188354,765.012146 1180.188721,763.018188 
	C1180.198853,703.731812 1180.240845,644.445312 1180.108276,585.159241 
	C1180.098267,580.722046 1181.069824,579.121887 1185.857422,579.172607 
	C1209.336060,579.421204 1232.819824,579.391357 1256.299438,579.190125 
	C1260.662109,579.152771 1261.953369,580.317322 1261.936157,584.775085 
	C1261.770386,627.740417 1261.836914,670.706665 1261.836914,713.672607 
	C1261.836914,715.481384 1261.836914,717.290161 1261.836914,720.177307 
	C1263.314453,718.316345 1264.253296,717.288696 1265.019775,716.145508 
	C1280.123779,693.614258 1295.268433,671.109680 1310.227539,648.482483 
	C1312.368042,645.244629 1314.567261,643.821716 1318.602173,643.889343 
	C1334.418457,644.154663 1350.241943,643.998108 1366.531372,643.999146 
	C1367.000000,662.354248 1367.000000,680.708435 1366.670044,699.613647 
	C1355.315063,714.880676 1344.380493,729.666199 1333.190308,744.255615 
	C1330.894165,747.249084 1331.227905,749.175110 1333.406860,751.921509 
	C1337.800171,757.459167 1341.823853,763.290039 1346.000000,769.000000 
	C1290.979126,769.000000 1235.958130,769.000000 1180.468628,769.000000 
z"/>
<path fill="#62D0AB" opacity="1.000000" stroke="none" 
	d="
M547.468628,769.000000 
	C547.000000,731.535156 547.000000,694.070374 547.000000,655.952148 
	C524.257874,655.952148 501.882019,655.952148 479.241608,655.952148 
	C479.241608,634.194763 479.241608,613.089661 479.241608,591.551758 
	C551.605469,591.551758 623.970520,591.551758 696.721680,591.551758 
	C696.721680,612.752502 696.721680,633.969360 696.721680,655.738281 
	C674.085571,655.738281 651.504333,655.738281 628.149963,655.738281 
	C628.149963,693.546509 628.149963,730.809387 628.074951,768.536133 
	C601.312439,769.000000 574.624878,769.000000 547.468628,769.000000 
z"/>
<path fill="#62D0AB" opacity="1.000000" stroke="none" 
	d="
M709.468628,769.000000 
	C708.713074,762.363953 708.160767,755.726929 708.186951,749.092102 
	C708.280090,725.503418 711.907288,702.682068 724.107910,681.974548 
	C738.463806,657.609009 759.524963,643.862488 788.015686,641.898682 
	C804.611755,640.754700 820.183105,643.566345 833.915894,653.439331 
	C840.113647,657.895081 845.968994,662.827087 850.533325,666.408203 
	C850.533325,661.435120 850.533325,653.008179 850.533325,644.300903 
	C877.911987,644.300903 904.484558,644.300903 931.842224,644.300903 
	C931.842224,685.597656 931.842224,726.835449 931.921143,768.536621 
	C903.645752,769.000000 875.291565,769.000000 846.429077,768.623474 
	C850.168701,759.289307 851.330872,749.942993 850.159973,740.095154 
	C848.408875,725.367798 837.681091,714.060486 824.716858,712.838318 
	C805.908142,711.065308 794.811340,722.294800 791.928345,736.579590 
	C789.662903,747.804443 790.320740,758.736511 796.000000,769.000000 
	C767.312439,769.000000 738.624878,769.000000 709.468628,769.000000 
z"/>
<path fill="#62D0AB" opacity="1.000000" stroke="none" 
	d="
M1027.468628,769.000000 
	C1020.063049,766.854126 1013.101318,764.784912 1006.193420,762.549194 
	C974.477722,752.284302 961.805847,727.055481 968.485291,695.683777 
	C974.431030,667.758240 994.291077,652.714966 1020.247192,645.777832 
	C1046.474731,638.768127 1073.212891,638.875000 1098.701294,649.267334 
	C1126.881348,660.757263 1142.492188,682.897888 1147.948486,712.511536 
	C1148.093140,713.296082 1147.966675,714.130615 1147.966675,715.490723 
	C1146.166626,715.571106 1144.570923,715.703308 1142.975342,715.704407 
	C1122.476807,715.718384 1101.977905,715.654663 1081.480103,715.772156 
	C1078.091919,715.791565 1076.209106,715.096008 1074.918823,711.473022 
	C1070.451050,698.928345 1057.813232,696.347229 1046.863281,698.575745 
	C1043.149902,699.331543 1040.094238,702.075989 1040.422485,705.834106 
	C1040.692993,708.930725 1042.302856,713.262573 1044.674805,714.550537 
	C1050.125122,717.510132 1056.309326,719.287781 1062.361206,720.937927 
	C1079.184448,725.524963 1096.512085,728.638428 1112.845459,734.536194 
	C1128.503052,740.189819 1140.310181,751.302368 1145.062256,768.612427 
	C1105.979126,769.000000 1066.958130,769.000000 1027.468628,769.000000 
z"/>
<path fill="#6F98F1" opacity="1.000000" stroke="none" 
	d="
M61.531342,1.000000 
	C62.000000,5.446944 62.000000,9.893888 62.000000,14.776120 
	C86.492493,14.776120 110.401711,14.776120 134.723892,14.776120 
	C134.723892,35.250153 134.723892,55.278164 134.723892,75.894531 
	C110.691734,75.894531 86.652962,75.894531 62.133423,75.894531 
	C62.133423,108.694649 62.133423,140.915237 62.133423,173.910400 
	C41.747444,173.910400 21.840664,173.910400 1.466942,173.955200 
	C1.000000,116.441322 1.000000,58.882641 1.000000,1.000000 
	C21.019730,1.000000 41.041206,1.000000 61.531342,1.000000 
z"/>
<path fill="#B779F1" opacity="1.000000" stroke="none" 
	d="
M1367.000000,511.531342 
	C1351.171021,512.000366 1335.341064,511.899872 1319.514038,512.079834 
	C1316.035645,512.119324 1314.666138,511.075562 1313.855591,507.619110 
	C1298.454834,441.953278 1282.908813,376.321472 1267.421387,310.675934 
	C1267.054443,309.120911 1267.014038,307.488892 1266.740479,305.223328 
	C1269.123657,305.223328 1270.914551,305.223328 1272.705444,305.223328 
	C1295.365845,305.223328 1318.027832,305.367828 1340.685059,305.102844 
	C1345.283203,305.049072 1347.171509,306.358948 1347.745605,310.894562 
	C1350.018433,328.854980 1352.547241,346.783020 1354.971191,364.724365 
	C1357.728638,385.133850 1360.469360,405.545624 1363.252441,425.951599 
	C1363.356934,426.716583 1363.829712,427.431305 1364.426392,428.894836 
	C1365.231445,425.258636 1365.862793,422.406769 1366.747070,419.277466 
	C1367.000000,449.687561 1367.000000,480.375122 1367.000000,511.531342 
z"/>
<path fill="#7099F1" opacity="1.000000" stroke="none" 
	d="
M272.531342,1.000000 
	C272.945892,23.152185 272.862244,45.304348 272.844574,67.456566 
	C272.818024,100.772621 272.837677,134.088715 272.837677,167.404785 
	C272.837677,169.358444 272.837677,171.312103 272.837677,173.574707 
	C245.536316,173.574707 218.789337,173.574707 191.141602,173.574707 
	C191.141602,116.364784 191.141602,59.146782 191.070801,1.464393 
	C218.020889,1.000000 245.041794,1.000000 272.531342,1.000000 
z"/>
<path fill="#FEFFFF" opacity="1.000000" stroke="none" 
	d="
M796.468628,769.000000 
	C790.320740,758.736511 789.662903,747.804443 791.928345,736.579590 
	C794.811340,722.294800 805.908142,711.065308 824.716858,712.838318 
	C837.681091,714.060486 848.408875,725.367798 850.159973,740.095154 
	C851.330872,749.942993 850.168701,759.289307 845.960449,768.623474 
	C829.645752,769.000000 813.291565,769.000000 796.468628,769.000000 
z"/>
<path fill="#FCFDFF" opacity="1.000000" stroke="none" 
	d="
M775.531372,1.000003 
	C771.890869,30.820631 767.781738,60.641258 763.672607,90.461884 
	C763.255066,90.523155 762.837524,90.584427 762.419983,90.645706 
	C761.773132,87.949791 761.090332,85.261917 760.484924,82.556725 
	C754.760620,56.977936 749.043640,31.397497 743.351379,5.811584 
	C743.063721,4.518770 743.021423,3.171386 742.932495,1.424708 
	C753.687561,1.000000 764.375122,1.000000 775.531372,1.000003 
z"/>
<path fill="#FDFDFF" opacity="1.000000" stroke="none" 
	d="
M640.531372,0.999998 
	C634.619141,31.019815 628.238281,61.039635 621.857422,91.059456 
	C621.590332,91.051361 621.323242,91.043274 621.056091,91.035179 
	C617.030762,61.312977 613.005371,31.590778 608.989990,1.434289 
	C619.354248,1.000000 629.708435,1.000000 640.531372,0.999998 
z"/>
<path fill="#FEFFFE" opacity="1.000000" stroke="none" 
	d="
M1346.468872,769.000000 
	C1341.823853,763.290039 1337.800171,757.459167 1333.406860,751.921509 
	C1331.227905,749.175110 1330.894165,747.249084 1333.190308,744.255615 
	C1344.380493,729.666199 1355.315063,714.880676 1366.670044,700.082275 
	C1367.000000,722.887512 1367.000000,745.775024 1367.000000,769.000000 
	C1360.316406,769.000000 1353.627075,769.000000 1346.468872,769.000000 
z"/>
<path fill="#B778F1" opacity="1.000000" stroke="none" 
	d="
M640.159180,427.848816 
	C661.702332,455.794647 683.027893,483.459381 704.808472,511.714447 
	C702.980774,511.837036 701.765747,511.989136 700.550659,511.989685 
	C671.219421,512.002930 641.887878,511.942444 612.557251,512.076904 
	C609.114624,512.092712 607.198914,510.976990 605.407410,508.047882 
	C590.118652,483.050842 574.658508,458.158661 559.247070,433.236664 
	C558.755127,432.441071 558.235474,431.662476 557.034790,429.798767 
	C557.034790,457.821594 557.034790,484.542297 557.034790,511.629578 
	C529.923157,511.629578 503.216309,511.629578 476.206818,511.629578 
	C476.206818,421.536133 476.206818,331.629395 476.206818,241.361115 
	C503.037872,241.361115 529.746399,241.361115 557.000610,241.361115 
	C557.000610,288.083221 557.000610,334.600433 557.000610,381.117676 
	C557.313843,381.208038 557.627014,381.298431 557.940247,381.388794 
	C561.611145,375.926605 565.291748,370.470856 568.951355,365.001068 
	C581.451294,346.317993 593.882568,327.588165 606.539368,309.011963 
	C607.732056,307.261475 610.316956,305.401398 612.269714,305.385956 
	C641.265808,305.156647 670.264282,305.227692 699.262207,305.246429 
	C700.052673,305.246948 700.843079,305.455536 702.333679,305.665955 
	C701.525940,307.125824 701.057617,308.255493 700.351013,309.208496 
	C676.455811,341.438477 652.572571,373.677460 628.560852,405.820496 
	C626.533997,408.533783 626.170471,410.351227 628.509277,413.055939 
	C632.532959,417.709076 636.152527,422.711761 640.159180,427.848816 
z"/>
<path fill="#B778F1" opacity="1.000000" stroke="none" 
	d="
M16.620243,348.650879 
	C29.264519,323.936646 48.509045,308.118713 75.829674,303.990936 
	C103.605522,299.794373 127.778458,306.356750 144.465820,331.060669 
	C144.729614,331.451202 144.894836,331.908264 146.053925,331.924225 
	C146.053925,323.225983 146.053925,314.527710 146.053925,305.536438 
	C173.146912,305.536438 199.720413,305.536438 226.647568,305.536438 
	C226.647568,374.271454 226.647568,442.817505 226.647568,511.682068 
	C199.937134,511.682068 173.358597,511.682068 146.315735,511.682068 
	C146.315735,503.067108 146.315735,494.476379 146.315735,485.148712 
	C141.559311,490.309875 137.688629,495.184143 133.138626,499.309021 
	C123.189507,508.328491 111.171425,512.909241 97.873055,513.987427 
	C83.615059,515.143433 69.643250,513.985413 56.393421,507.952637 
	C40.728031,500.820068 28.790218,489.543549 20.022287,474.899689 
	C7.396329,453.812317 3.558981,430.637360 3.810502,406.410522 
	C4.018993,386.328339 7.386328,367.057434 16.620243,348.650879 
M124.198616,375.040100 
	C108.197906,371.284149 94.116112,378.179749 88.729767,393.072235 
	C84.828522,403.858765 84.768707,414.897003 89.252136,425.692810 
	C94.033760,437.206512 102.924812,443.006958 115.150475,443.379303 
	C126.670456,443.730164 135.823685,439.045746 141.503952,428.743134 
	C145.914062,420.744293 146.861923,411.931763 145.761017,403.063568 
	C144.138596,389.994385 138.299042,379.734680 124.198616,375.040100 
z"/>
<path fill="#B778F1" opacity="1.000000" stroke="none" 
	d="
M1124.224365,305.144562 
	C1159.667114,299.448944 1192.771973,303.392090 1221.648071,325.841156 
	C1243.069214,342.494507 1254.732910,364.893951 1258.059814,391.729340 
	C1260.105957,408.234406 1259.721558,424.651337 1255.125488,440.692902 
	C1244.592285,477.456879 1220.378052,500.719086 1183.582520,510.104645 
	C1151.212524,518.361389 1119.444702,516.190796 1089.868042,499.345490 
	C1061.366821,483.112793 1046.239258,457.703369 1042.071655,425.610504 
	C1038.965698,401.694397 1041.310669,378.358063 1052.767822,356.730530 
	C1067.388916,329.130432 1090.747559,312.889038 1120.905273,305.949677 
	C1121.876465,305.726196 1122.838867,305.464264 1124.224365,305.144562 
M1139.456177,375.737030 
	C1135.774048,379.236725 1130.822876,382.087402 1128.640625,386.354156 
	C1121.195190,400.911316 1120.812500,416.409241 1128.251343,430.891754 
	C1137.357910,448.621246 1161.230835,449.013489 1171.300171,431.761810 
	C1179.031616,418.515594 1178.841309,404.068970 1173.444336,389.930176 
	C1168.027100,375.738800 1154.361816,370.002686 1139.456177,375.737030 
z"/>
<path fill="#B779F1" opacity="1.000000" stroke="none" 
	d="
M740.001709,512.000977 
	C734.346863,512.000977 729.191650,512.000977 723.597290,512.000977 
	C723.597290,425.680420 723.597290,339.656921 723.597290,253.263977 
	C784.400085,253.263977 845.135986,253.263977 906.332703,253.263977 
	C906.332703,274.262329 906.332703,295.291565 906.332703,316.941345 
	C872.763489,316.941345 839.210876,316.941345 805.265625,316.941345 
	C805.265625,329.111084 805.265625,340.669800 805.265625,352.889099 
	C829.289429,352.889099 853.337708,352.889099 877.673340,352.889099 
	C877.673340,373.459198 877.673340,393.375671 877.673340,413.996094 
	C853.560059,413.996094 829.523499,413.996094 804.906494,413.996094 
	C804.906494,446.921051 804.906494,479.150970 804.906494,512.000977 
	C783.047607,512.000977 761.774475,512.000977 740.001709,512.000977 
z"/>
<path fill="#B779F1" opacity="1.000000" stroke="none" 
	d="
M293.207031,420.903992 
	C255.184204,403.294037 255.549469,357.683990 274.970276,332.655060 
	C287.025879,317.118164 303.633942,309.123291 322.382172,305.461914 
	C345.244720,300.997131 368.219086,300.978485 390.303101,309.099640 
	C420.172760,320.083862 437.304138,342.167908 443.095581,373.273224 
	C443.276123,374.242706 443.454834,375.212555 443.736298,376.732483 
	C441.973755,376.829132 440.405090,376.988708 438.836304,376.989990 
	C418.178223,377.006744 397.519806,376.944000 376.862366,377.058960 
	C373.526276,377.077545 371.547058,376.576477 370.331451,372.844452 
	C366.086761,359.813660 351.070435,357.333405 341.366669,360.493927 
	C339.152496,361.215057 336.926331,364.068695 336.115112,366.425903 
	C334.860474,370.071655 335.848511,374.110870 339.616089,375.920135 
	C344.664825,378.344543 349.958069,380.476135 355.366272,381.894958 
	C371.416016,386.105621 387.680420,389.524078 403.651306,394.000122 
	C414.236053,396.966614 422.904266,403.412964 430.499573,411.500916 
	C437.811462,419.287079 441.502960,428.546173 442.785980,438.768799 
	C444.652222,453.638397 442.867981,467.879150 434.229004,480.781006 
	C425.722687,493.484680 413.915955,502.191101 399.868378,506.962738 
	C363.992371,519.148987 328.361298,517.784302 294.421844,500.405273 
	C270.972595,488.397858 256.568146,468.932526 253.214630,442.182709 
	C253.157623,441.727997 253.394333,441.236450 253.607071,440.223907 
	C255.190704,440.223907 256.817566,440.223907 258.444427,440.223907 
	C280.935089,440.223877 303.426056,440.278809 325.916138,440.165222 
	C329.334320,440.147949 331.223236,440.722717 332.222198,444.590637 
	C333.918854,451.159729 338.513550,455.640442 345.262756,456.993439 
	C349.609406,457.864777 354.172638,458.118835 358.611725,457.947693 
	C364.071564,457.737274 368.094177,454.188721 368.760620,449.918335 
	C369.417328,445.710663 366.518799,441.021942 361.332245,439.290680 
	C355.040253,437.190399 348.562897,435.619720 342.119873,434.002686 
	C328.594971,430.608337 315.026642,427.386627 301.508820,423.964905 
	C298.787659,423.276123 296.211487,422.014618 293.207031,420.903992 
z"/>
<path fill="#B778F1" opacity="1.000000" stroke="none" 
	d="
M934.000000,473.000000 
	C934.000000,395.549713 934.000000,318.599426 934.000000,241.325287 
	C961.054871,241.325287 987.639343,241.325287 1014.671326,241.325287 
	C1014.671326,331.314667 1014.671326,421.328644 1014.671326,511.671570 
	C988.027161,511.671570 961.437012,511.671570 934.000000,511.671570 
	C934.000000,498.993652 934.000000,486.246826 934.000000,473.000000 
z"/>
<path fill="#FEFEFF" opacity="1.000000" stroke="none" 
	d="
M430.601471,50.594971 
	C435.032593,62.542896 435.409943,74.374832 432.050537,86.169334 
	C428.648865,98.112076 419.370270,105.631042 408.581787,105.953766 
	C396.643250,106.310890 387.302429,99.963699 383.297119,87.417168 
	C379.245819,74.726700 379.354553,61.716320 385.061249,49.484058 
	C389.194092,40.625351 396.582458,35.338123 406.706970,35.079334 
	C417.925049,34.792595 425.460419,40.602085 430.601471,50.594971 
z"/>
<path fill="#FEFEFF" opacity="1.000000" stroke="none" 
	d="
M124.596748,375.126892 
	C138.299042,379.734680 144.138596,389.994385 145.761017,403.063568 
	C146.861923,411.931763 145.914062,420.744293 141.503952,428.743134 
	C135.823685,439.045746 126.670456,443.730164 115.150475,443.379303 
	C102.924812,443.006958 94.033760,437.206512 89.252136,425.692810 
	C84.768707,414.897003 84.828522,403.858765 88.729767,393.072235 
	C94.116112,378.179749 108.197906,371.284149 124.596748,375.126892 
z"/>
<path fill="#FEFEFF" opacity="1.000000" stroke="none" 
	d="
M1139.796509,375.556030 
	C1154.361816,370.002686 1168.027100,375.738800 1173.444336,389.930176 
	C1178.841309,404.068970 1179.031616,418.515594 1171.300171,431.761810 
	C1161.230835,449.013489 1137.357910,448.621246 1128.251343,430.891754 
	C1120.812500,416.409241 1121.195190,400.911316 1128.640625,386.354156 
	C1130.822876,382.087402 1135.774048,379.236725 1139.796509,375.556030 
z"/>
</svg>